<svg width="24" height="24" viewBox="0 0 24 24" fill="none" xmlns="http://www.w3.org/2000/svg">
<path fill-rule="evenodd" clip-rule="evenodd" d="M2.75981 15.629C2.01752 15.629 1.365 15.1373 1.16034 14.4238C0.955679 13.7103 1.24838 12.9475 1.87781 12.554L20.3608 0.999994C20.9211 0.649354 21.6359 0.663821 22.1815 1.03684C22.7272 1.40987 23.0001 2.07063 22.8768 2.71999L19.2768 21.893C19.1547 22.5411 18.6614 23.056 18.0191 23.2056C17.3768 23.3552 16.7068 23.1114 16.3108 22.584L11.1008 15.629H2.75981Z" stroke="#838FA9" stroke-width="1.5" stroke-linecap="round" stroke-linejoin="round"/>
<path fill-rule="evenodd" clip-rule="evenodd" d="M11.1016 15.629H8.60156V20.8C8.60153 21.4165 8.94251 21.9824 9.48756 22.2704C10.0326 22.5584 10.6923 22.5213 11.2016 22.174L14.3796 20.008L11.1016 15.629Z" stroke="#838FA9" stroke-width="1.5" stroke-linecap="round" stroke-linejoin="round"/>
<path d="M11.0996 15.629L22.1796 1.039" stroke="#838FA9" stroke-width="1.5" stroke-linecap="round" stroke-linejoin="round"/>
</svg>
