<svg width="20" height="20" viewBox="0 0 20 20" fill="none" xmlns="http://www.w3.org/2000/svg">
<path d="M4.6 17.8L1.6 13.6L1 11.8V8.8L2.8 7L4.6 6.4L4 4C4.2 3.6 4.72 2.68 5.2 2.2C5.68 1.72 6.2 2 6.4 2.2H7.6L8.8 1.6L9.4 1L11.2 1.6L12.4 2.2H14.2L15.4 3.4L17.2 4L19 4.6V9.4V13.6L17.8 16L16.6 17.2L14.2 19L10 19.6L6.4 19L4.6 17.8Z" fill="white"/>
<path fill-rule="evenodd" clip-rule="evenodd" d="M15.4 5.4964V3.6964C15.4 2.70229 14.5941 1.8964 13.6 1.8964C12.6059 1.8964 11.8 2.70229 11.8 3.6964V2.8C11.8 1.80589 10.9941 1 10 1C9.00589 1 8.2 1.80589 8.2 2.8V3.7C8.2 2.70589 7.39411 1.9 6.4 1.9C5.40589 1.9 4.6 2.70589 4.6 3.7V6.4C2.61177 6.4 1 8.01177 1 10C0.999726 11.7561 1.54853 13.4684 2.5696 14.8972L3.8896 16.7392C4.90242 18.1568 6.53697 18.9986 8.2792 19H12.8548C14.4852 19 16.0488 18.3521 17.2014 17.1988C18.3539 16.0456 19.001 14.4816 19 12.8512V5.4964C19 4.50229 18.1941 3.6964 17.2 3.6964C16.2059 3.6964 15.4 4.50229 15.4 5.4964Z" stroke="#919CB0" stroke-width="1.5" stroke-linecap="round" stroke-linejoin="round"/>
<path d="M4.59863 6.39648V9.09648" stroke="#919CB0" stroke-width="1.5" stroke-linecap="round" stroke-linejoin="round"/>
<path d="M8.20117 5.49568V3.69568" stroke="#919CB0" stroke-width="1.5" stroke-linecap="round" stroke-linejoin="round"/>
<path d="M11.7988 5.49568V3.69568" stroke="#919CB0" stroke-width="1.5" stroke-linecap="round" stroke-linejoin="round"/>
</svg>
