<svg width="9" height="29" viewBox="0 0 9 29" fill="none" xmlns="http://www.w3.org/2000/svg">
<path fill-rule="evenodd" clip-rule="evenodd" d="M4.15003 28C5.88974 28 7.30006 26.5897 7.30006 24.85C7.30006 23.1103 5.88974 21.7 4.15003 21.7C2.41032 21.7 1 23.1103 1 24.85C1 26.5897 2.41032 28 4.15003 28Z" stroke="white" stroke-width="1.5" stroke-linecap="round" stroke-linejoin="round"/>
<path fill-rule="evenodd" clip-rule="evenodd" d="M4.15003 7.30006C5.88974 7.30006 7.30006 5.88974 7.30006 4.15003C7.30006 2.41032 5.88974 1 4.15003 1C2.41032 1 1 2.41032 1 4.15003C1 5.88974 2.41032 7.30006 4.15003 7.30006Z" stroke="white" stroke-width="1.5" stroke-linecap="round" stroke-linejoin="round"/>
<path fill-rule="evenodd" clip-rule="evenodd" d="M4.15003 17.6499C5.88974 17.6499 7.30006 16.2396 7.30006 14.4999C7.30006 12.7602 5.88974 11.3499 4.15003 11.3499C2.41032 11.3499 1 12.7602 1 14.4999C1 16.2396 2.41032 17.6499 4.15003 17.6499Z" stroke="white" stroke-width="1.5" stroke-linecap="round" stroke-linejoin="round"/>
</svg>
