<svg width="24" height="24" viewBox="0 0 24 24" fill="none" xmlns="http://www.w3.org/2000/svg">
<path fill-rule="evenodd" clip-rule="evenodd" d="M6.60009 10.27C6.49111 9.89648 6.43721 9.50906 6.44009 9.11999C6.42241 7.62258 7.02053 6.18364 8.09445 5.13998C9.16836 4.09632 10.6238 3.53954 12.1201 3.59999C15.2201 3.59999 16.9201 5.48999 16.9201 8.01999C16.9201 11.34 15.4501 14.15 13.2601 14.15C12.0501 14.15 11.6301 13.23 11.9101 12.01C12.3301 10.26 14.6201 7.34999 11.9101 6.74999C9.20009 6.14999 8.78009 9.58999 8.73009 11.15L7.07009 18.15C6.79116 19.7748 6.79116 21.4352 7.07009 23.06C7.0766 23.1315 7.12736 23.1912 7.19691 23.2092C7.26646 23.2271 7.33978 23.1994 7.38009 23.14C8.37522 21.9015 9.14985 20.5011 9.67009 19C9.83009 18.42 10.4201 16.2 10.4201 16.2C11.1308 17.2394 12.3214 17.846 13.5801 17.81C17.7301 17.81 20.7101 13.27 20.7101 8.19999C20.7101 4.36999 17.4601 0.799988 12.5301 0.799988C6.39009 0.799988 3.29009 5.19999 3.29009 8.86999C3.16407 10.6296 3.91198 12.3386 5.29009 13.44L6.60009 10.27Z" stroke="white" stroke-width="1.5" stroke-linecap="round" stroke-linejoin="round"/>
</svg>
